<svg width="16" height="14" viewBox="0 0 16 14" fill="none" xmlns="http://www.w3.org/2000/svg">
<path d="M7.14056 13.8143C6.90631 13.727 6.69569 13.5934 6.50869 13.4136L5.19375 12.2111C3.88288 11.0197 2.68956 9.81488 1.61381 8.5965C0.537938 7.378 0 6.01113 0 4.49588C0 3.21525 0.425562 2.14575 1.27669 1.28738C2.12781 0.429126 3.19381 0 4.47469 0C5.12306 0 5.7375 0.124688 6.318 0.374063C6.89838 0.623563 7.40894 0.977938 7.84969 1.43719C8.29056 0.977938 8.80119 0.623563 9.38156 0.374063C9.96206 0.124688 10.5764 0 11.2247 0C12.5084 0 13.5805 0.429126 14.4409 1.28738C15.3011 2.14575 15.7313 3.21525 15.7313 4.49588C15.7313 6.01113 15.1912 7.38113 14.1111 8.60588C13.0309 9.8305 11.8229 11.042 10.4871 12.2404L9.20138 13.4241C9.0145 13.6041 8.80212 13.7359 8.56425 13.8195C8.3265 13.9033 8.08831 13.9451 7.84969 13.9451C7.61119 13.9451 7.37481 13.9015 7.14056 13.8143ZM7.06313 3.49894C6.743 3.02881 6.37138 2.65937 5.94825 2.39062C5.52512 2.12188 5.03494 1.9875 4.47769 1.9875C3.76619 1.9875 3.17331 2.22513 2.69906 2.70038C2.22469 3.17563 1.9875 3.77413 1.9875 4.49588C1.9875 5.13225 2.21344 5.80844 2.66531 6.52444C3.11719 7.24044 3.65762 7.935 4.28662 8.60813C4.91563 9.28125 5.56294 9.91156 6.22856 10.4991C6.89419 11.0866 7.43456 11.57 7.84969 11.9494C8.26769 11.5619 8.81094 11.0747 9.47944 10.4878C10.1481 9.90106 10.7982 9.2715 11.4298 8.59913C12.0616 7.92663 12.6052 7.23538 13.0607 6.52538C13.5161 5.81525 13.7438 5.13875 13.7438 4.49588C13.7438 3.77413 13.5043 3.17563 13.0254 2.70038C12.5467 2.22513 11.9482 1.9875 11.2299 1.9875C10.6673 1.9875 10.1762 2.12188 9.75656 2.39062C9.33706 2.65937 8.96725 3.02881 8.64713 3.49894C8.55038 3.64506 8.433 3.75469 8.295 3.82781C8.15688 3.90094 8.00844 3.9375 7.84969 3.9375C7.69106 3.9375 7.544 3.90094 7.4085 3.82781C7.273 3.75469 7.15788 3.64506 7.06313 3.49894Z" fill="#1C1B1F"/>
</svg>
