<svg width="14" height="13" viewBox="0 0 14 13" fill="none" xmlns="http://www.w3.org/2000/svg">
<path d="M12.4464 7.625C11.2141 8.97317 10.0273 10.1785 8.68978 11.3403L6.78036 13.0007L2.21499 8.32692C1.14303 7.2329 0.298391 5.9283 0.0543298 4.4107C-0.287834 2.30253 1.01622 0.296014 3.11945 0.0297692C4.63167 -0.161443 6.00032 0.584042 6.98135 1.81845C7.79249 0.816401 8.85488 0.129006 10.1446 0.0297692C11.9655 -0.108194 13.5447 1.12379 13.8964 2.89795C14.2481 4.67211 13.6595 6.2962 12.4464 7.62258V7.625ZM13.0518 4.41312C13.3748 2.75515 12.3794 1.17462 10.7452 0.951944C9.4411 0.775254 8.14901 1.5522 7.58432 2.68253C7.87624 3.27069 8.17055 3.81286 8.2208 4.40828C8.29019 5.23606 7.74942 5.90167 6.9981 5.88473C6.33291 5.87021 5.70841 5.31352 5.76822 4.50268C5.81369 3.89274 6.14389 3.29974 6.44298 2.69222C5.87351 1.72647 4.87573 1.04392 3.72481 0.932581C2.50929 0.813981 1.42059 1.58125 1.03057 2.73578C0.0878283 5.52651 3.01895 7.85494 4.80873 9.66298L6.88564 11.7615C8.57971 10.1616 10.147 8.68514 11.6616 7.032C12.3387 6.29136 12.8508 5.42969 13.0494 4.4107L13.0518 4.41312ZM7.24934 4.76892C7.35941 4.40102 7.2302 3.90726 6.95982 3.64344C6.71336 4.20497 6.50519 4.67453 6.90239 4.93835C6.97178 4.98434 7.22063 4.86332 7.24934 4.77134V4.76892Z" fill="#1F1F22"/>
</svg>
