<svg width="20" height="20" viewBox="0 0 20 20" fill="none" xmlns="http://www.w3.org/2000/svg">
<path d="M15.5 7C16.8807 7 18 5.88071 18 4.5C18 3.11929 16.8807 2 15.5 2C14.1193 2 13 3.11929 13 4.5C13 5.88071 14.1193 7 15.5 7Z" stroke="#1F1F22" stroke-width="2" stroke-linecap="round" stroke-linejoin="round"/>
<path d="M5.5 13C6.88071 13 8 11.8807 8 10.5C8 9.11929 6.88071 8 5.5 8C4.11929 8 3 9.11929 3 10.5C3 11.8807 4.11929 13 5.5 13Z" stroke="#1F1F22" stroke-width="2" stroke-linecap="round" stroke-linejoin="round"/>
<path d="M15.5 18C16.8807 18 18 16.8807 18 15.5C18 14.1193 16.8807 13 15.5 13C14.1193 13 13 14.1193 13 15.5C13 16.8807 14.1193 18 15.5 18Z" stroke="#1F1F22" stroke-width="2" stroke-linecap="round" stroke-linejoin="round"/>
<path d="M7 11L13 14" stroke="#1F1F22" stroke-width="2" stroke-linecap="round" stroke-linejoin="round"/>
<path d="M13 5L7 8" stroke="#1F1F22" stroke-width="2" stroke-linecap="round" stroke-linejoin="round"/>
</svg>
